# xmcd
#
# Track frame offsets:
#	150
#	15987
#	30977
#	45109
#	61399
#	82668
#	101520
#
# Disc length: 1633 seconds
#
# Revision: 3
# Processed by: cddbd v1.5.2PL0 Copyright (c) Steve Scherf et al.
# Submitted via: audiograbber 1.83.01
#
DISCID=38065f07
DTITLE=Peter Cornelius - Unverwüstlich (Limited Deluxe Edition) CD 2
DYEAR=2017
DGENRE=AustroPop
TTITLE0=Seelensauerstoff
TTITLE1=Innere Stimm
TTITLE2=Times Square (Acoustic Fx)
TTITLE3=Ins kalte Wasser
TTITLE4=Spur verwischen
TTITLE5=Selbstverwirklichung (Live)
TTITLE6=Kinder spüren (Live)
EXTD=MARO\n
EXTT0=
EXTT1=
EXTT2=
EXTT3=
EXTT4=
EXTT5=
EXTT6=
PLAYORDER=
